<svg width="253" height="232" viewBox="0 0 253 232" fill="none" xmlns="http://www.w3.org/2000/svg">
<g clip-path="url(#clip0_14_27)">
<path fill-rule="evenodd" clip-rule="evenodd" d="M126.5 217.085C67.1504 158.694 10.5417 108.537 10.5417 65.2635C10.5417 25.3 42.8835 10.5417 66.2122 10.5417C80.0429 10.5417 109.971 15.823 126.5 57.5259C143.261 15.6965 173.558 10.6471 186.862 10.6471C213.637 10.6471 242.458 27.7351 242.458 65.2635C242.458 108.157 188.316 156.185 126.5 217.085ZM186.862 0.105417C163.638 0.105417 139.993 11.0898 126.5 34.2393C112.954 10.9844 89.3723 0 66.2122 0C32.6581 0 0 23.0546 0 65.2635C0 114.398 58.7276 164.661 126.5 231.917C194.283 164.661 253 114.398 253 65.2635C253 22.9808 220.374 0.105417 186.862 0.105417Z" fill="#E43131"/>
<path d="M203.5 149.458L126 224.958V45.9584C137.962 20.8718 149.308 14.0705 176 7.95836C215.166 4.03931 229.596 14.1894 247 45.9584C248.587 90.9071 235.043 112.589 203.5 149.458Z" fill="#EC2020"/>
<path d="M48.5028 149.889L126 225.458V46.2935C114.038 21.1839 102.693 14.3763 76.0018 8.25851C36.8371 4.33584 22.4082 14.4953 5.00439 46.2935C3.4177 91.2836 16.9608 112.985 48.5028 149.889Z" fill="#EC2020"/>
</g>
<defs>
<clipPath id="clip0_14_27">
<rect width="253" height="231.92" fill="white"/>
</clipPath>
</defs>
</svg>
