<svg width="265" height="266" viewBox="0 0 265 266" fill="none" xmlns="http://www.w3.org/2000/svg">
<g clip-path="url(#clip0_13_9)">
<path d="M240.859 0H23.1715C10.131 0 0 10.6504 0 23.223V178.979C0 192.019 10.6506 202.202 23.2234 202.202H30.9646V266L103.96 202.15H240.807C253.847 202.15 264.03 191.499 264.03 178.927V23.223C264.03 10.6504 253.899 0 240.859 0ZM248.548 178.927C248.548 183.291 245.171 186.668 240.807 186.668H98.141L46.3949 231.659V186.668H23.1715C18.8073 186.668 15.4303 183.291 15.4303 178.927V23.223C15.4303 18.859 18.8073 15.482 23.1715 15.482H240.807C245.171 15.482 248.548 18.859 248.548 23.223V178.927Z" fill="black"/>
<line x1="52.0137" y1="50" x2="212.016" y2="50" stroke="black" stroke-width="18"/>
<line x1="52.0137" y1="95" x2="212.016" y2="95" stroke="black" stroke-width="18"/>
<line x1="52.0137" y1="136" x2="152.015" y2="136" stroke="black" stroke-width="18"/>
</g>
<defs>
<clipPath id="clip0_13_9">
<rect width="264.03" height="266" fill="white"/>
</clipPath>
</defs>
</svg>
