<svg width="253" height="232" viewBox="0 0 253 232" fill="none" xmlns="http://www.w3.org/2000/svg">
<g clip-path="url(#clip0_6_2)">
<path fill-rule="evenodd" clip-rule="evenodd" d="M126.5 217.088C67.1504 158.697 10.5417 108.539 10.5417 65.2644C10.5417 25.3004 42.8835 10.5418 66.2122 10.5418C80.0429 10.5418 109.971 15.8233 126.5 57.5267C143.261 15.6968 173.558 10.6472 186.862 10.6472C213.637 10.6472 242.458 27.7355 242.458 65.2644C242.458 108.159 188.316 156.188 126.5 217.088ZM186.862 0.105418C163.638 0.105418 139.993 11.09 126.5 34.2398C112.954 10.9846 89.3723 0 66.2122 0C32.6581 0 0 23.055 0 65.2644C0 114.4 58.7276 164.663 126.5 231.92C194.283 164.663 253 114.4 253 65.2644C253 22.9812 220.374 0.105418 186.862 0.105418Z" fill="black"/>
</g>
<defs>
<clipPath id="clip0_6_2">
<rect width="253" height="231.92" fill="white"/>
</clipPath>
</defs>
</svg>
